<?xml version="1.0" encoding="utf-8"?>
<!-- Svg Vector Icons : http://www.onlinewebfonts.com/icon -->
<!DOCTYPE svg PUBLIC "-//W3C//DTD SVG 1.1//EN" "http://www.w3.org/Graphics/SVG/1.1/DTD/svg11.dtd">
<svg version="1.1" xmlns="http://www.w3.org/2000/svg" xmlns:xlink="http://www.w3.org/1999/xlink" x="0px" y="0px" viewBox="0 0 1000 1000" enable-background="new 0 0 1000 1000" xml:space="preserve" width="70px" height="70px">
<metadata> Svg Vector Icons : http://www.onlinewebfonts.com/icon </metadata>
<g><g transform="translate(0.000000,511.000000) scale(0.100000,-0.100000)"><path d="M9132.3,4694.8c-29.8-10.6-819.8-481.2-1756.6-1047.6c-1275.4-770.8-1720.4-1030.6-1782.2-1036.9c-61.7-6.4-87.3-21.3-110.7-70.3c-40.4-74.5-132-125.6-230-125.6c-78.8,0-121.4-31.9-121.4-89.4c0-51.1-106.5-102.2-219.3-102.2c-95.8,0-121.4-21.3-121.4-102.2c0-23.4-164-134.1-489.7-330c-511-306.6-572.8-359.8-545.1-472.7c14.9-57.5,119.2-104.3,187.4-85.2c44.7,12.8,606.8,317.3,779.3,419.5l68.1,42.6v-338.6v-336.4l-244.9-146.9c-266.2-157.6-330-219.3-330-313c0-66,66-125.6,140.5-125.6c44.7,0,264,106.5,383.3,185.2l51.1,31.9V-19.4v-668.6l-217.2-17c-396-25.6-764.4-121.4-1034.8-266.2l-112.9-61.7l-132,83c-281.1,176.7-692,300.2-1130.6,342.8c-866.6,85.2-1720.4-244.9-1995.1-768.7c-70.3-134.1-72.4-396.1-2.1-525.9c59.6-112.9,59.6-112.9-8.5-112.9H100l12.8-144.8c55.4-655.8,547.2-1337.2,1249.9-1733.2l159.7-89.4v-210.8c0-195.9,4.3-212.9,51.1-251.3c46.8-38.3,106.5-40.5,1780.1-40.5c1533.1,0,1735.3,4.3,1765.1,31.9c49,51.1,83.1,200.2,70.3,313l-12.8,100.1l174.6,95.8c779.3,423.7,1269,1085.9,1345.7,1818.4c8.5,72.4,6.4,132-4.3,132c-8.5,0-17,63.9-17,144.8C6673-1331,6059.8-879.6,5148.4-726.3l-80.9,12.8V38.1c0,643,4.3,755.9,31.9,779.3c27.7,23.4,31.9-14.9,31.9-315.1c0-187.4,6.4-355.6,12.8-374.8c10.6-25.6,42.6-34.1,127.8-34.1c63.9,0,117.1,2.1,119.2,6.4c2.1,2.1,8.5,204.4,14.9,449.3c10.6,330,19.2,447.1,40.5,455.7c19.2,6.4,25.5-25.5,25.5-112.8c0-168.2,23.4-202.3,136.3-202.3c51.1,0,102.2,12.8,115,27.7c12.8,14.9,27.7,127.8,29.8,247l6.4,221.4l2031.3,1132.8c1117.9,623.9,2050.5,1156.2,2071.8,1181.7c53.2,66,49,200.1-8.5,291.7c-57.5,95.8-155.4,138.4-253.4,112.8c-40.5-12.8-919.8-534.4-1956.8-1160.4L5759.5,1605.2l-6.4,302.4c-2.1,166.1,2.1,308.7,12.8,319.4c10.7,10.6,817.6,464.2,1795,1007.1c1058.2,589.8,1799.2,1015.7,1835.4,1054c63.9,72.4,72.4,138.4,27.7,240.6C9368.6,4662.8,9247.2,4731,9132.3,4694.8z M5440.2,1415.7c-27.7-29.8-31.9,0-31.9,287.4c0,227.8,8.5,327.9,27.7,347.1c21.3,21.3,27.7-36.2,31.9-287.5C5472.1,1503,5467.8,1443.4,5440.2,1415.7z M5122.9,1228.4c-6.4-14.9-21.3-27.7-34.1-27.7c-34.1,0-29.8,653.7,6.4,666.5c19.2,6.4,27.7-66,31.9-302.3C5129.3,1394.4,5127.1,1243.3,5122.9,1228.4z M2320.8-790.2c110.7-14.9,270.4-51.1,351.3-76.7c164-51.1,438.6-181,521.7-249.1l53.2-44.7l-104.3-106.5l-104.3-106.5l-136.3,98c-283.2,202.3-640.9,293.8-1079.5,278.9c-300.2-10.7-513.2-66-706.9-178.9c-195.9-115-347.1-315.1-349.2-462c0-85.2,55.4-206.5,132-285.3l63.9-66l-178.9-14.9c-100.1-8.5-198-10.6-219.3-8.5c-55.4,12.8-159.7,210.8-174.6,334.3c-19.2,172.5,38.3,308.8,204.4,474.8C941-856.2,1645.8-685.8,2320.8-790.2z M5078.2-888.1c623.9-76.7,1147.7-389.6,1277.6-762.3c17-53.2,31.9-151.2,31.9-219.3v-123.5H6196h-191.6v134.1c0,106.5-12.8,153.3-63.9,242.7c-106.5,185.2-332.2,338.5-660.1,445c-168.2,55.4-204.4,59.6-543,59.6c-338.5,2.1-372.6-2.1-534.4-57.5c-93.7-31.9-230-95.8-302.3-140.5l-129.9-85.2l-87.3,117.1c-49,66-85.2,121.4-80.9,125.6c34.1,36.2,304.5,149,457.8,191.6C4381.9-868.9,4722.6-845.5,5078.2-888.1z M2308-1196.9c353.5-91.6,609-334.3,609-579.1c0-25.6-14.9-80.9-29.8-121.4l-31.9-74.5h-215.1h-215.1l42.6,55.4c102.2,129.9,74.5,289.6-70.3,393.9c-272.6,198-764.4,189.5-926.2-14.9c-51.1-66-57.5-132-14.9-189.5c27.7-38.3,31.9-38.3,132,4.3c68.1,29.8,106.5,59.6,110.7,87.3c6.4,42.6,63.9,74.5,178.9,97.9c170.3,38.3,396-115,370.5-249.1c-17-80.9-59.6-129.9-151.2-172.5c-55.4-27.7-144.8-34.1-410.9-34.1h-340.7l-102.2,70.3c-132,87.3-212.9,232.1-191.6,347.1c21.3,104.3,144.8,232.1,298.1,304.5c112.9,55.4,178.9,72.4,438.6,117.1C1877.9-1137.2,2176-1162.8,2308-1196.9z M4935.5-1269.2c462.1-59.6,792.1-306.6,792.1-600.5c0-55.4-6.4-104.3-14.9-108.6c-10.6-4.3-97.9-4.3-198,0l-181,10.7l8.5,93.7c8.5,127.8-61.7,219.3-240.6,306.6c-110.7,55.4-172.5,70.3-317.3,78.8c-198,12.8-298.1-8.5-423.7-93.7c-85.2-57.5-134.1-151.2-112.8-217.2c6.4-25.6,29.8-44.7,49-42.6c74.5,2.1,227.8,72.4,227.8,104.3c0,78.8,291.7,117.1,413.1,55.4c102.2-53.2,153.3-164,117.1-255.5c-10.6-29.8-80.9-34.1-551.5-34.1h-538.7l-38.3,57.5c-19.2,31.9-40.5,104.3-46.8,159.7c-25.6,268.3,289.6,455.6,847.4,504.6C4746-1250.1,4839.7-1258.6,4935.5-1269.2z M3534.5-1541.8c44.7-121.4,55.4-287.5,21.3-374.8c-19.2-51.1-29.8-55.4-159.7-55.4s-140.5,4.3-159.7,55.4c-31.9,80.9-25.6,298.1,8.5,381.1c17,40.4,57.5,108.6,91.6,151.2l57.5,76.7l49-59.6C3470.6-1401.2,3511-1480,3534.5-1541.8z"/></g></g>
</svg>